<?xml version="1.0" encoding="utf-8"?>
<!-- Generator: Adobe Illustrator 18.0.0, SVG Export Plug-In . SVG Version: 6.00 Build 0)  -->
<!DOCTYPE svg PUBLIC "-//W3C//DTD SVG 1.1//EN" "http://www.w3.org/Graphics/SVG/1.1/DTD/svg11.dtd">
<svg version="1.1" id="Layer_1" xmlns="http://www.w3.org/2000/svg" xmlns:xlink="http://www.w3.org/1999/xlink" x="0px" y="0px"
	 viewBox="28.6 296 600 137.7" enable-background="new 28.6 296 600 137.7" xml:space="preserve">
<g>
	<g>
		<g>
			<path fill="#414042" d="M221.6,353.1h-16.9v16.2h-7.5v-42.4h7.5v19.4h16.9v-19.4h7.5v42.4h-7.5V353.1z"/>
			<path fill="#414042" d="M244.2,359.1c1,2.8,3.5,5.3,6.5,5.3c4.4,0,6.2-3.7,6.2-3.7l5.9,3.2c0,0-3.5,6.9-12.2,6.9
				c-7.8,0-14.1-6.2-14.1-14.1c0-7.8,6.2-14.1,14.1-14.1c7.5,0,13.4,6.2,13.4,13.7l-2.8,2.8L244.2,359.1L244.2,359.1z M244.4,353.4
				H257c-1.2-2.8-3.2-4.7-6.2-4.7C247.6,348.7,245.7,350.6,244.4,353.4z"/>
			<path fill="#414042" d="M291.6,354.4v14.9h-6.9v-2.5h-0.6c0,0-2.2,3.7-7.2,3.7c-5.7,0-9.4-3.7-9.4-8.7c0-5.1,4-8.7,10.6-8.7
				c3.7,0,6.5,1.2,6.5,1.2c0-3.2-2.5-5.7-5.3-5.7c-3.2,0-5.3,2.2-5.3,2.2l-4-4.7c0,0,3.2-3.7,9.4-3.7
				C286.3,342.5,291.6,347.8,291.6,354.4z M278.2,359.4c-2.2,0-3.5,1.2-3.5,2.5s1.2,2.5,4,2.5c4.7,0,5.9-4.7,5.9-4.7
				S281.9,359.4,278.2,359.4z"/>
			<path fill="#414042" d="M299.4,326.9h6.9v42.4h-6.9V326.9z"/>
			<path fill="#414042" d="M311.9,343.7h4v-9.4h6.9v9.4h6.5v6.2h-6.5v10.3c0,2.5,1.5,4,3.5,4c1.5,0,2.8-1.2,2.8-1.2l2.2,5.9
				c0,0-2.2,1.5-5.7,1.5c-5.3,0-9.7-4.4-9.7-10.3v-10.3h-4V343.7z"/>
			<path fill="#414042" d="M337.5,326.9h6.9v19.4h0.6c0,0,2.2-3.7,7.2-3.7c5.3,0,10.3,5,10.3,11.2v15.6h-6.9v-15.6
				c0-2.8-2.2-5-5.3-5c-3.2,0-5.9,2.8-5.9,5.3v15.3h-6.9V326.9z"/>
			<path fill="#414042" d="M383.6,326.9h7.5v42.4h-7.5V326.9z"/>
			<path fill="#414042" d="M400.5,343.7h6.9v2.5h0.6c0,0,2.2-3.7,7.2-3.7c5.3,0,10.3,5,10.3,11.2v15.6h-6.9v-15.6c0-2.8-2.2-5-5.3-5
				c-3.2,0-5.9,2.8-5.9,5.3v15.3h-6.9V343.7L400.5,343.7z"/>
			<path fill="#414042" d="M444.6,361.6c0-3.5-13.1-1.5-13.1-11.2c0-3.7,4-7.8,10-7.8c6.9,0,10.3,4.4,10.3,4.4l-4.7,4.4
				c0,0-1.9-2.5-5-2.5c-2.2,0-3.2,1-3.2,2.2c0,3.5,13.1,1.5,13.1,11.2c0,4.4-4,8.4-10.6,8.4c-7.5,0-11.6-5-11.6-5l4.7-4.4
				c0,0,2.5,3.2,6.2,3.2C443.3,364.3,444.6,363.1,444.6,361.6z"/>
			<path fill="#414042" d="M482.9,369.3h-6.9v-2.5h-0.6c0,0-2.2,3.7-7.2,3.7c-5.3,0-10.3-5-10.3-11.2v-15.6h6.9v15.6
				c0,2.8,2.2,5,5.3,5s5.9-2.8,5.9-5.3v-15.3h6.9L482.9,369.3L482.9,369.3z"/>
			<path fill="#414042" d="M497.9,355v14.4H491v-25.6h6.9v2.5h0.6c0,0,2.2-3.7,6.5-3.7c1.5,0,2.8,0.6,2.8,0.6l-1.2,6.5
				c0,0-1.2-0.6-2.8-0.6C500.7,349,497.9,351.9,497.9,355z"/>
			<path fill="#414042" d="M533.5,354.4v14.9h-6.9v-2.5H526c0,0-2.2,3.7-7.2,3.7c-5.7,0-9.4-3.7-9.4-8.7c0-5.1,4-8.7,10.6-8.7
				c3.7,0,6.5,1.2,6.5,1.2c0-3.2-2.5-5.7-5.3-5.7c-3.2,0-5.3,2.2-5.3,2.2l-4-4.7c0,0,3.2-3.7,9.4-3.7
				C528.2,342.5,533.5,347.8,533.5,354.4z M520.1,359.4c-2.2,0-3.5,1.2-3.5,2.5s1.2,2.5,4,2.5c4.7,0,5.9-4.7,5.9-4.7
				S523.8,359.4,520.1,359.4z"/>
			<path fill="#414042" d="M541,343.7h6.9v2.5h0.6c0,0,2.2-3.7,7.2-3.7c5.3,0,10.3,5,10.3,11.2v15.6h-6.9v-15.6c0-2.8-2.2-5-5.3-5
				c-3.2,0-5.9,2.8-5.9,5.3v15.3H541L541,343.7L541,343.7z"/>
			<path fill="#414042" d="M591.9,360l5.9,3.2c0,0-3.4,7.5-12.2,7.5c-7.8,0-14.1-6.2-14.1-14.1c0-7.8,6.2-14.1,14.1-14.1
				c8.4,0,11.9,6.9,11.9,6.9l-5.9,3.2c0,0-1.9-3.7-5.9-3.7c-3.4,0-6.9,3.4-6.9,7.8c0,4.4,3.5,7.8,6.9,7.8
				C590,364.3,591.9,360,591.9,360z"/>
			<path fill="#414042" d="M608.7,359.1c1,2.8,3.5,5.3,6.5,5.3c4.4,0,6.2-3.7,6.2-3.7l5.9,3.2c0,0-3.4,6.9-12.2,6.9
				c-7.8,0-14.1-6.2-14.1-14.1c0-7.8,6.2-14.1,14.1-14.1c7.5,0,13.4,6.2,13.4,13.7l-2.8,2.8L608.7,359.1L608.7,359.1z M609.1,353.4
				h12.5c-1.2-2.8-3.2-4.7-6.2-4.7C612.1,348.7,610.3,350.6,609.1,353.4z"/>
			<path fill="#414042" d="M214.9,392.4l-1.9,1.2c0,0-2.6-4.2-7.4-4.2c-4.9,0-9.5,4.5-9.5,10.1c0,5.6,4.5,10.1,9.5,10.1
				c5.4,0,8.1-4.9,8.1-4.9l1.9,1.2c0,0-3.2,6-9.9,6c-6.3,0-11.9-5.6-11.9-12.4c0-6.8,5.6-12.4,11.9-12.4
				C211.8,387.2,214.9,392.4,214.9,392.4z"/>
			<path fill="#414042" d="M233.4,387.2c6.3,0,11.9,5.6,11.9,12.4c0,6.8-5.6,12.4-11.9,12.4c-6.3,0-11.9-5.6-11.9-12.4
				C221.6,392.8,227.1,387.2,233.4,387.2z M233.4,389.4c-4.9,0-9.5,4.5-9.5,10.1c0,5.6,4.5,10.1,9.5,10.1s9.5-4.5,9.5-10.1
				C242.9,394,238.4,389.4,233.4,389.4z"/>
			<path fill="#414042" d="M275.4,387.2v24.2h-2.3v-17.7h-0.2l-8.2,11.4l-8.2-11.4h-0.2v17.7H254v-24.2h0.5l10.1,14l10.1-14H275.4z"
				/>
			<path fill="#414042" d="M291.3,404h-3.2v7.4h-2.3v-23.4h5.4c5.6,0,9.3,3.6,9.3,8.1C300.6,400.3,296.9,404,291.3,404z
				 M291.3,401.6c4.2,0,6.8-2.6,6.8-5.7s-2.6-5.7-6.8-5.7h-3.2v11.6L291.3,401.6L291.3,401.6z"/>
			<path fill="#414042" d="M324.2,411.3h-2.4l-1.5-4.4h-11l-1.5,4.4h-2.4l9.5-24.8h0.2L324.2,411.3z M310,404.6h9.3l-4.5-12.4h-0.2
				L310,404.6z"/>
			<path fill="#414042" d="M348.7,411.3h-2.8l-5.4-9.5h-6v9.5h-2.3v-23.4h7c5.1,0,8.2,3.2,8.2,7c0,5.1-4.7,6.3-4.7,6.3v0.2
				L348.7,411.3z M339.2,399.6c3.6,0,5.7-2.1,5.7-4.7s-2.1-4.7-5.7-4.7h-4.7v9.5L339.2,399.6L339.2,399.6z"/>
			<path fill="#414042" d="M356.7,387.9h2.3v23.4h-2.3V387.9z"/>
			<path fill="#414042" d="M382.3,391.1l-1.9,1.2c0,0-1.8-2.8-4.7-2.8c-2.9,0-4.7,1.8-4.7,4c0,5.4,11.7,3.9,11.7,11.6
				c0,3.6-3.3,7-7.8,7c-5.6,0-7.8-4.9-7.8-4.9l1.9-1.2c0,0,1.8,3.9,6,3.9c3.3,0,5.4-2.1,5.4-4.7c0-5.7-11.7-4.2-11.7-11.6
				c0-3.2,3.2-6.3,7.2-6.3C380.1,387.2,382.3,391.1,382.3,391.1z"/>
			<path fill="#414042" d="M401.3,387.2c6.3,0,11.9,5.6,11.9,12.4c0,6.8-5.6,12.4-11.9,12.4s-11.9-5.6-11.9-12.4
				C389.4,392.8,395,387.2,401.3,387.2z M401.3,389.4c-4.9,0-9.5,4.5-9.5,10.1c0,5.6,4.5,10.1,9.5,10.1c4.9,0,9.5-4.5,9.5-10.1
				C410.7,394,406.2,389.4,401.3,389.4z"/>
			<path fill="#414042" d="M437.6,412l-13.3-18.3h-0.2v17.7h-2.3v-24.2h0.5l13.3,18.3h0.2v-17.6h2.3v24.2L437.6,412L437.6,412z"/>
		</g>
	</g>
	
		<linearGradient id="SVGID_1_" gradientUnits="userSpaceOnUse" x1="113.65" y1="521.2402" x2="113.65" y2="429.5101" gradientTransform="matrix(0.808 0 0 0.808 5.5112 2.8285)">
		<stop  offset="0" style="stop-color:#05708A"/>
		<stop  offset="1" style="stop-color:#60C8D8"/>
	</linearGradient>
	<path fill="url(#SVGID_1_)" d="M152.5,337.7h-19.3c-4.8-0.7-8.4-4.6-9-9.5v-18.7c0-0.5,0-1-0.1-1.4c-0.7-6.9-6.5-12.2-13.5-12.2
		h-5.3h-4.6h-6.9H84c-7,0-12.8,5.3-13.5,12.2c-0.1,0.5-0.1,0.9-0.1,1.4v18.7c-0.5,4.8-4.2,8.7-9,9.5H42.2c-7.5,0-13.6,6.1-13.6,13.6
		v2.7v9v3.4v7.1v4.7c0,7.5,6.1,13.6,13.6,13.6h19.3c4.8,0.7,8.4,4.6,9,9.5v18.7c0,0.5,0,1,0.1,1.4c0.7,6.9,6.5,12.2,13.5,12.2h9.9
		h6.9h4.6h5.3c7,0,12.8-5.3,13.5-12.2c0.1-0.5,0.1-0.9,0.1-1.4v-18.7c0.5-4.8,4.2-8.7,9-9.5h19.3c7.5,0,13.6-6.1,13.6-13.6v-4.7
		v-7.1v-3.4v-9v-2.7C166.1,343.9,160,337.7,152.5,337.7z M124.1,368.3c-1.1,4.9-3.9,9.3-7.5,12.6l-19.4,17.3l-19.1-17.3
		c-3.6-3.3-6.4-7.7-7.5-12.6c-0.9-3.6-0.5-5.6-0.5-5.6c0.7-8.1,6.4-14.8,14.3-14.8c5.9,0,10.6,3.6,12.8,8.9
		c2.2-5.3,7.3-8.9,13.1-8.9c7.9,0,13.6,6.8,14.3,14.8C124.6,362.6,125,364.6,124.1,368.3z"/>
</g>
</svg>
